<svg width="183" height="183" viewBox="0 0 183 183" fill="none" xmlns="http://www.w3.org/2000/svg">
<circle cx="91.5" cy="91.5" r="91.5" fill="#EE5E1B"/>
<path d="M45.3867 158.507C58.4916 167.543 74.3778 172.833 91.4998 172.833C105.867 172.833 119.364 169.108 131.077 162.571" stroke="#4D220F" stroke-width="2"/>
<path d="M46.1133 23.998C59.077 15.2643 74.6933 10.1665 91.5002 10.1665C105.719 10.1665 119.085 13.8151 130.714 20.2271" stroke="#4D220F" stroke-width="2"/>
<path d="M53.0117 151.371C64.1079 158.519 77.3195 162.667 91.4998 162.667C102.701 162.667 113.299 160.079 122.726 155.468" stroke="#4D220F" stroke-width="2"/>
<path d="M122.726 27.5321C113.299 22.9215 102.702 20.3335 91.5002 20.3335C77.628 20.3335 64.6828 24.3026 53.7383 31.1671" stroke="#4D220F" stroke-width="2"/>
<circle cx="91.4994" cy="91.4999" r="39.2143" fill="#232221"/>
<circle cx="91.4985" cy="91.5" r="47.6548" stroke="#4D220F" stroke-width="2"/>
</svg>
