<svg width="109" height="109" viewBox="0 0 109 109" fill="none" xmlns="http://www.w3.org/2000/svg">
<circle cx="54.4737" cy="54.5264" r="54.4737" fill="#EE5E1B"/>
<path d="M27.0195 94.4185C34.8214 99.7978 44.2791 102.948 54.4725 102.948C63.0257 102.948 71.0609 100.73 78.0346 96.8382" stroke="#4D220F" stroke-width="0.864662"/>
<path d="M27.4531 14.3399C35.171 9.1404 44.468 6.10547 54.4738 6.10547C62.9388 6.10547 70.8964 8.27762 77.8197 12.0949" stroke="#4D220F" stroke-width="0.864662"/>
<path d="M31.5586 90.1704C38.1646 94.4258 46.03 96.8949 54.4721 96.8949C61.1409 96.8949 67.4498 95.3542 73.0624 92.6093" stroke="#4D220F" stroke-width="0.864662"/>
<path d="M73.0636 16.4434C67.4511 13.6984 61.1422 12.1577 54.4734 12.1577C46.2147 12.1577 38.5079 14.5207 31.9922 18.6074" stroke="#4D220F" stroke-width="0.864662"/>
<circle cx="54.4748" cy="54.5265" r="23.3459" fill="#232221"/>
<circle cx="54.474" cy="54.5262" r="28.5338" stroke="#4D220F" stroke-width="0.864662"/>
</svg>
